<svg xmlns="http://www.w3.org/2000/svg" width="900" height="420" viewBox="0 0 900 420">
<rect x="0" y="0" width="900" height="420" fill="#ffffff" stroke="#ddd"/>
<text x="450.0" y="28" text-anchor="middle" font-family="Helvetica,Arial" font-size="18" fill="#222">Parametric φπ-Locked vs Unlocked (E_avg)</text>
<line x1="60" y1="60" x2="60" y2="360" stroke="#444"/>
<line x1="60" y1="360" x2="840" y2="360" stroke="#444"/>
<line x1="55" y1="360.0" x2="60" y2="360.0" stroke="#666"/>
<text x="52" y="364.0" text-anchor="end" font-size="10" font-family="Helvetica,Arial" fill="#444">0.0e+00</text>
<line x1="55" y1="285.0" x2="60" y2="285.0" stroke="#666"/>
<text x="52" y="289.0" text-anchor="end" font-size="10" font-family="Helvetica,Arial" fill="#444">1.2e-07</text>
<line x1="55" y1="210.0" x2="60" y2="210.0" stroke="#666"/>
<text x="52" y="214.0" text-anchor="end" font-size="10" font-family="Helvetica,Arial" fill="#444">2.5e-07</text>
<line x1="55" y1="135.0" x2="60" y2="135.0" stroke="#666"/>
<text x="52" y="139.0" text-anchor="end" font-size="10" font-family="Helvetica,Arial" fill="#444">3.7e-07</text>
<line x1="55" y1="60.0" x2="60" y2="60.0" stroke="#666"/>
<text x="52" y="64.0" text-anchor="end" font-size="10" font-family="Helvetica,Arial" fill="#444">5.0e-07</text>
<rect x="77.5" y="350.5" width="62.4" height="9.5" fill="#2b8a3e"/>
<rect x="175.1" y="356.7" width="62.4" height="3.3" fill="#c92a2a"/>
<text x="157.5" y="378.0" text-anchor="middle" font-size="11" font-family="Helvetica,Arial" fill="#222">Below threshold (0.8× m_thr)</text>
<text x="157.5" y="52.0" text-anchor="middle" font-size="10" font-family="Helvetica,Arial" fill="#222">Δgrowth +0.40 | Gain 190%</text>
<rect x="272.6" y="341.5" width="62.4" height="18.5" fill="#2b8a3e"/>
<rect x="370.1" y="356.5" width="62.4" height="3.5" fill="#c92a2a"/>
<text x="352.5" y="378.0" text-anchor="middle" font-size="11" font-family="Helvetica,Arial" fill="#222">Just above threshold (1.1× m_thr)</text>
<text x="352.5" y="52.0" text-anchor="middle" font-size="10" font-family="Helvetica,Arial" fill="#222">Δgrowth +0.75 | Gain 430%</text>
<rect x="467.6" y="299.1" width="62.4" height="60.9" fill="#2b8a3e"/>
<rect x="565.0" y="355.9" width="62.4" height="4.1" fill="#c92a2a"/>
<text x="547.5" y="378.0" text-anchor="middle" font-size="11" font-family="Helvetica,Arial" fill="#222">Moderately above threshold (1.6× m_thr)</text>
<text x="547.5" y="52.0" text-anchor="middle" font-size="10" font-family="Helvetica,Arial" fill="#222">Δgrowth +1.72 | Gain 1372%</text>
<rect x="662.5" y="87.3" width="62.4" height="272.7" fill="#2b8a3e"/>
<rect x="760.0" y="354.6" width="62.4" height="5.4" fill="#c92a2a"/>
<text x="742.5" y="378.0" text-anchor="middle" font-size="11" font-family="Helvetica,Arial" fill="#222">Well above threshold (2.2× m_thr)</text>
<text x="742.5" y="52.0" text-anchor="middle" font-size="10" font-family="Helvetica,Arial" fill="#222">Δgrowth +4.22 | Gain 4910%</text>
<rect x="630" y="48" width="12" height="12" fill="#2b8a3e"/><text x="650" y="58" font-size="11" font-family="Helvetica,Arial">Locked</text>
<rect x="710" y="48" width="12" height="12" fill="#c92a2a"/><text x="730" y="58" font-size="11" font-family="Helvetica,Arial">Unlocked</text>
</svg>