<svg xmlns="http://www.w3.org/2000/svg" width="600" height="360" viewBox="0 0 600 360">
<rect x="0" y="0" width="600" height="360" fill="#ffffff" stroke="#ddd"/>
<text x="300.0" y="28" text-anchor="middle" font-family="Helvetica,Arial" font-size="18" fill="#222">Confinement vs Dissipation (E_avg)</text>
<line x1="60" y1="60" x2="60" y2="300" stroke="#444"/>
<line x1="60" y1="300" x2="540" y2="300" stroke="#444"/>
<line x1="55" y1="300.0" x2="60" y2="300.0" stroke="#666"/>
<text x="52" y="304.0" text-anchor="end" font-size="10" font-family="Helvetica,Arial" fill="#444">0.0</text>
<line x1="55" y1="240.0" x2="60" y2="240.0" stroke="#666"/>
<text x="52" y="244.0" text-anchor="end" font-size="10" font-family="Helvetica,Arial" fill="#444">21.6</text>
<line x1="55" y1="180.0" x2="60" y2="180.0" stroke="#666"/>
<text x="52" y="184.0" text-anchor="end" font-size="10" font-family="Helvetica,Arial" fill="#444">43.3</text>
<line x1="55" y1="120.0" x2="60" y2="120.0" stroke="#666"/>
<text x="52" y="124.0" text-anchor="end" font-size="10" font-family="Helvetica,Arial" fill="#444">64.9</text>
<line x1="55" y1="60.0" x2="60" y2="60.0" stroke="#666"/>
<text x="52" y="64.0" text-anchor="end" font-size="10" font-family="Helvetica,Arial" fill="#444">86.5</text>
<rect x="158.4" y="81.8" width="120.0" height="218.2" fill="#1c7ed6"/>
<text x="218.4" y="318.0" text-anchor="middle" font-size="11" font-family="Helvetica,Arial" fill="#222">Confined</text>
<rect x="316.8" y="246.4" width="120.0" height="53.6" fill="#868e96"/>
<text x="376.8" y="318.0" text-anchor="middle" font-size="11" font-family="Helvetica,Arial" fill="#222">Open</text>
<text x="300.0" y="52" text-anchor="middle" font-size="12" font-family="Helvetica,Arial" fill="#222">Retention ratio (confined/open): 4.1×</text>
</svg>