<svg xmlns="http://www.w3.org/2000/svg" width="680" height="360" viewBox="0 0 680 360">
<rect x="0" y="0" width="680" height="360" fill="#fff" stroke="#ddd"/>
<text x="340.0" y="28" text-anchor="middle" font-family="Helvetica,Arial" font-size="18" fill="#222">Retention vs Boundary Absorption (PML max damping)</text>
<text x="340.0" y="350" text-anchor="middle" font-family="Helvetica,Arial" font-size="12" fill="#444">x: pml_max | y: E_avg(confined)/E_avg(open)</text>
<line x1="60" y1="60" x2="60" y2="300" stroke="#444"/>
<line x1="60" y1="300" x2="620" y2="300" stroke="#444"/>
<line x1="55" y1="300.0" x2="60" y2="300.0" stroke="#666"/>
<text x="52" y="304.0" text-anchor="end" font-size="10" font-family="Helvetica,Arial" fill="#444">0.0</text>
<line x1="55" y1="240.0" x2="60" y2="240.0" stroke="#666"/>
<text x="52" y="244.0" text-anchor="end" font-size="10" font-family="Helvetica,Arial" fill="#444">25.8</text>
<line x1="55" y1="180.0" x2="60" y2="180.0" stroke="#666"/>
<text x="52" y="184.0" text-anchor="end" font-size="10" font-family="Helvetica,Arial" fill="#444">51.6</text>
<line x1="55" y1="120.0" x2="60" y2="120.0" stroke="#666"/>
<text x="52" y="124.0" text-anchor="end" font-size="10" font-family="Helvetica,Arial" fill="#444">77.4</text>
<line x1="55" y1="60.0" x2="60" y2="60.0" stroke="#666"/>
<text x="52" y="64.0" text-anchor="end" font-size="10" font-family="Helvetica,Arial" fill="#444">103.2</text>
<line x1="60.0" y1="300" x2="60.0" y2="305" stroke="#666"/>
<text x="60.0" y="318.0" text-anchor="middle" font-size="10" font-family="Helvetica,Arial" fill="#444">0.000</text>
<line x1="116.0" y1="300" x2="116.0" y2="305" stroke="#666"/>
<text x="116.0" y="318.0" text-anchor="middle" font-size="10" font-family="Helvetica,Arial" fill="#444">0.005</text>
<line x1="172.0" y1="300" x2="172.0" y2="305" stroke="#666"/>
<text x="172.0" y="318.0" text-anchor="middle" font-size="10" font-family="Helvetica,Arial" fill="#444">0.010</text>
<line x1="284.0" y1="300" x2="284.0" y2="305" stroke="#666"/>
<text x="284.0" y="318.0" text-anchor="middle" font-size="10" font-family="Helvetica,Arial" fill="#444">0.020</text>
<line x1="396.0" y1="300" x2="396.0" y2="305" stroke="#666"/>
<text x="396.0" y="318.0" text-anchor="middle" font-size="10" font-family="Helvetica,Arial" fill="#444">0.030</text>
<line x1="620.0" y1="300" x2="620.0" y2="305" stroke="#666"/>
<text x="620.0" y="318.0" text-anchor="middle" font-size="10" font-family="Helvetica,Arial" fill="#444">0.050</text>
<polyline points="60.0,288.5 116.0,282.3 172.0,285.0 284.0,287.5 396.0,276.3 620.0,60.0" fill="none" stroke="#1c7ed6" stroke-width="2.5"/>
<circle cx="60.0" cy="288.5" r="3" fill="#1c7ed6"/>
<circle cx="116.0" cy="282.3" r="3" fill="#1c7ed6"/>
<circle cx="172.0" cy="285.0" r="3" fill="#1c7ed6"/>
<circle cx="284.0" cy="287.5" r="3" fill="#1c7ed6"/>
<circle cx="396.0" cy="276.3" r="3" fill="#1c7ed6"/>
<circle cx="620.0" cy="60.0" r="3" fill="#1c7ed6"/>
</svg>